<?xml version="1.0" encoding="iso-8859-1"?>
<!-- Generator: Adobe Illustrator 19.0.0, SVG Export Plug-In . SVG Version: 6.00 Build 0)  -->
<svg fill='#ffffff' version="1.1" id="Layer_1" xmlns="http://www.w3.org/2000/svg" xmlns:xlink="http://www.w3.org/1999/xlink" x="0px" y="0px"
	 viewBox="0 0 512 512" style="enable-background:new 0 0 512 512;" xml:space="preserve">
<g>
	<g>
		<path d="M317.175,259.524c3.081,10.377,6.801,19.337,10.94,27.273C420.011,300.254,486.4,338.654,486.4,384
			c0,56.55-103.151,102.4-230.4,102.4S25.6,440.55,25.6,384c0-45.346,66.389-83.746,158.276-97.212
			c4.139-7.927,7.859-16.896,10.94-27.273C80.435,272.546,0,321.664,0,384c0,72.969,110.054,128,256,128s256-55.031,256-128
			C512,321.664,431.565,272.546,317.175,259.524z"/>
	</g>
</g>
<g>
	<g>
		<path d="M369.852,361.097C331.964,342.161,281.6,302.694,281.6,179.2c0-14.14-11.46-25.6-25.6-25.6c-14.14,0-25.6,11.46-25.6,25.6
			c0,123.494-50.364,162.961-88.252,181.905c-10.615,5.308-16.196,17.229-13.466,28.783c2.731,11.546,13.047,19.712,24.917,19.712
			h204.8c11.87,0,22.187-8.166,24.917-19.721S380.467,366.413,369.852,361.097z M153.6,384C204.8,358.4,256,307.2,256,179.2
			c0,128,51.2,179.2,102.4,204.8C332.8,384,179.2,384,153.6,384z"/>
	</g>
</g>
<g>
	<g>
		<circle cx="256" cy="115.2" r="12.8"/>
	</g>
</g>
<g>
	<g>
		<path d="M256,0c-21.171,0-38.4,17.229-38.4,38.4s17.229,38.4,38.4,38.4s38.4-17.229,38.4-38.4S277.171,0,256,0z M256,51.2
			c-7.066,0-12.8-5.734-12.8-12.8c0-7.066,5.734-12.8,12.8-12.8c7.066,0,12.8,5.734,12.8,12.8C268.8,45.466,263.066,51.2,256,51.2z"
			/>
	</g>
</g>
<g>
	<g>
		<path d="M347.759,314.291c15.531,13.047,25.813,19.763,51.55,39.066c22.434,8.55,35.891,19.132,35.891,30.643
			c0,28.279-80.23,51.2-179.2,51.2S76.8,412.279,76.8,384c0-11.511,13.457-22.093,35.891-30.643
			c28.424-21.171,37.487-27.068,51.55-39.066C109.542,322.91,51.2,341.948,51.2,384c0,74.641,183.834,76.8,204.8,76.8
			c20.966,0,204.8-2.159,204.8-76.8C460.8,341.948,402.458,322.91,347.759,314.291z"/>
	</g>
</g>
<g>
</g>
<g>
</g>
<g>
</g>
<g>
</g>
<g>
</g>
<g>
</g>
<g>
</g>
<g>
</g>
<g>
</g>
<g>
</g>
<g>
</g>
<g>
</g>
<g>
</g>
<g>
</g>
<g>
</g>
</svg>
